<svg width="27" height="21" fill="none" xmlns="http://www.w3.org/2000/svg"><path d="M25.857 9.519l.877-.736L13.537 0 .097 8.537l2.046 1.669L0 8.537l.097 1.276L13.83 21 26.88 9.764l-.049-.981-.974.736z" fill="#000"/><path d="M23.423 11.138c-1.12.785-2.191 1.619-3.311 2.404-1.12.785-2.192 1.62-3.263 2.453l-3.117 1.374-3.262-1.423c-1.12-.834-2.289-1.668-3.409-2.502a87.925 87.925 0 00-3.457-2.453A151.871 151.871 0 00.098 8.537c1.12.884 2.24 1.767 3.311 2.6 1.12.884 2.24 1.718 3.36 2.601 1.12.883 2.24 1.718 3.36 2.552l2.824 2.453.828 2.257.585-2.257 2.678-2.404 3.214-2.503 3.214-2.502c1.07-.834 2.142-1.717 3.165-2.551a91.846 91.846 0 01-3.214 2.355z" fill="#fff"/></svg>