<svg width="30" height="21" fill="none" xmlns="http://www.w3.org/2000/svg"><path d="M7.83 3.005L14.522.182l6.965 3.05-.09 4.69-7.011 3.413-6.42-3.414-.136-4.916z" fill="#000"/><path d="M14.385 11.518l-.09-.046-6.51-3.414-.092-5.144L14.522 0l7.147 3.141-.137 4.917-7.147 3.46zM8.103 7.83l6.282 3.323 6.829-3.323.09-4.507L14.477.32 8.012 3.14l.091 4.689z" fill="#fff"/><path d="M7.876 3.096l6.692 2.913 6.92-2.731" fill="#000"/><path d="M14.568 7.146h-.091L7.83 3.232l.137-.318 6.6 2.913 6.83-2.686.136.319-6.965 3.686z" fill="#fff"/><path d="M14 6l.328 5.322.255.005L15 6h-1z" fill="#fff"/><path d="M.182 12.246l6.646-2.868 7.01 3.095-.136 4.69-6.965 3.368-6.464-3.368-.091-4.917z" fill="#000"/><path d="M6.737 20.713l-.09-.045-6.51-3.415L0 12.11l6.829-2.913 7.147 3.14-.137 4.917-7.102 3.46zM.455 17.026l6.282 3.323 6.829-3.323.091-4.507L6.83 9.56.32 12.337l.136 4.689z" fill="#fff"/><path d="M.183 12.291l6.692 2.914 6.92-2.686" fill="#000"/><path d="M6.874 16.387l-.09-.046-6.647-3.913.136-.273 6.601 2.868 6.874-2.686.091.319-6.965 3.731z" fill="#fff"/><path d="M6.156 15.224l.406 5.32.319.005.619-5.325H6.156z" fill="#fff"/><path d="M16.206 11.882l6.646-2.868 7.011 3.095-.136 4.69-6.966 3.368-6.464-3.369-.09-4.916z" fill="#000"/><path d="M22.762 20.349l-.091-.046-6.51-3.414-.137-5.144 6.829-2.913L30 11.972l-.136 4.917-7.102 3.46zm-6.282-3.642l6.282 3.278 6.828-3.323.091-4.507-6.828-3.005-6.51 2.777.137 4.78z" fill="#fff"/><path d="M16.207 11.927l6.692 2.914 6.92-2.686" fill="#000"/><path d="M22.899 16.023l-.091-.046-6.647-3.913.137-.274 6.6 2.869 6.875-2.686.09.318-6.964 3.732z" fill="#fff"/><path d="M22 15l.586 5.178.318.006L23.5 15H22z" fill="#fff"/></svg>