<svg width="30" height="21" viewBox="0 0 30 21" fill="none" xmlns="http://www.w3.org/2000/svg">
<path d="M7.83008 3.00459L14.522 0.182129L21.4871 3.23221L21.3961 7.92113L14.3855 11.3354L7.96665 7.92113L7.83008 3.00459Z" fill="black"/>
<path d="M14.3853 11.5175L14.2943 11.4719L7.78441 8.05767L7.69336 2.91351L14.5219 0L21.6691 3.14113L21.5325 8.05767L14.3853 11.5175ZM8.10307 7.83005L14.3853 11.1533L21.2139 7.83005L21.3049 3.32322L14.4764 0.318665L8.01202 3.14113L8.10307 7.83005Z" fill="white"/>
<path d="M7.87598 3.0957L14.5679 6.00921L21.4875 3.2778" fill="black"/>
<path d="M14.5676 7.14575H14.4765L7.83008 3.23224L7.96665 2.91357L14.5676 5.82708L21.3961 3.14119L21.5327 3.45986L14.5676 7.14575Z" fill="white"/>
<path d="M13.9998 6.00018L14.3281 11.3218L14.5829 11.3269L14.9998 6.00018L13.9998 6.00018Z" fill="white"/>
<path d="M0.181641 12.2459L6.82808 9.37793L13.8387 12.4735L13.7021 17.1625L6.73703 20.5312L0.272688 17.1625L0.181641 12.2459Z" fill="black"/>
<path d="M6.73749 20.7133L6.64644 20.6677L0.136571 17.2535L0 12.1093L6.82853 9.1958L13.9757 12.3369L13.8392 17.2535L6.73749 20.7133ZM0.455236 17.0259L6.73749 20.3491L13.566 17.0259L13.6571 12.519L6.82853 9.55999L0.318665 12.3369L0.455236 17.0259Z" fill="white"/>
<path d="M0.182617 12.2913L6.87458 15.2048L13.7942 12.5189" fill="black"/>
<path d="M6.8742 16.387L6.78316 16.3414L0.136719 12.4279L0.273289 12.1548L6.8742 15.0228L13.7483 12.3369L13.8393 12.6555L6.8742 16.387Z" fill="white"/>
<path d="M6.156 15.2243L6.56242 20.5431L6.88102 20.5495L7.49974 15.2243L6.156 15.2243Z" fill="white"/>
<path d="M16.2061 11.8817L22.8525 9.01367L29.8631 12.1093L29.7266 16.7982L22.7614 20.1669L16.2971 16.7982L16.2061 11.8817Z" fill="black"/>
<path d="M22.7619 20.349L22.6709 20.3035L16.161 16.8892L16.0244 11.7451L22.8529 8.83154L30.0001 11.9727L29.8636 16.8892L22.7619 20.349ZM16.4796 16.7071L22.7619 19.9848L29.5904 16.6616L29.6815 12.1548L22.8529 9.15021L16.3431 11.9271L16.4796 16.7071Z" fill="white"/>
<path d="M16.207 11.927L22.899 14.8405L29.8186 12.1546" fill="black"/>
<path d="M22.8986 16.0227L22.8076 15.9772L16.1611 12.0637L16.2977 11.7905L22.8986 14.6585L29.7727 11.9726L29.8637 12.2913L22.8986 16.0227Z" fill="white"/>
<path d="M21.9998 14.9999L22.5858 20.1778L22.9044 20.1842L23.4998 14.9999L21.9998 14.9999Z" fill="white"/>
</svg>
