<svg width="25" height="23" fill="none" xmlns="http://www.w3.org/2000/svg"><path d="M3.228 0L.587.939 0 2.054l1.056 9.976 19.308 10.447L25 18.72V5.986L3.228 0z" fill="#000"/><path d="M.587.939l5.047 1.467 5.047 1.467 5.047 1.467c.821.235 1.702.47 2.523.763.822.235 1.702.528 2.524.822h-.118c.705-.176 1.409-.352 2.172-.47.352-.058.704-.176 1.056-.234.352-.059.704-.176 1.056-.235v.059l-1.056.352-1.056.352c-.704.235-1.409.41-2.113.645h-.117c-.822-.234-1.702-.47-2.524-.763a42.085 42.085 0 01-2.523-.821l-4.989-1.643-4.988-1.585L.587.94z" fill="#fff"/><path d="M0 2.054l18.5 4.93V6.5l2.04.484.41.352-.762.939-.118.176-.117-.059L0 2.054z" fill="#fff"/><path d="M20.13 8.275l.234 14.202L19 8l1.13.275z" fill="#fff"/></svg>