<svg width="28" height="13" fill="none" xmlns="http://www.w3.org/2000/svg"><path d="M19.137 0L0 5.181.303 6.43l6.731 6.43 20.612-8.926.151-1.097L19.137 0z" fill="#000"/><path d="M0 5.219l.908.68.87.682c.605.453 1.172.907 1.777 1.399l1.778 1.4 1.626.875 2.61-.535 2.609-1.022 2.61-1.02 2.609-.984c1.74-.68 3.48-1.324 5.219-1.967.87-.34 1.74-.643 2.61-.945.87-.303 1.74-.643 2.609-.946-.87.379-1.702.719-2.572 1.06-.87.34-1.702.718-2.572 1.058-1.74.681-3.441 1.4-5.18 2.08L14.9 8.055l-2.61 1.022-2.61.983-2.609.983-.075.038-.076-.076-1.74-1.437-1.74-1.437-1.7-1.475-.87-.718L0 5.219z" fill="#fff"/><path d="M7.148 10.892l-.113 1.967-.442-2.238.555.271z" fill="#fff"/></svg>