<svg width="26" height="31" fill="none" xmlns="http://www.w3.org/2000/svg"><path d="M21.104 16.677L6.95 2.794l-.923.893-2.138 9.06 18.129 13.26 1.022-.425-1.936-8.905z" fill="#000"/><path d="M6.918 2.813L6.79 3.941l-.147 1.094a58.88 58.88 0 01-.307 2.242l-.308 2.24.068 1.847 1.782 1.98 2.202 1.733 2.201 1.734 2.169 1.753a292.175 292.175 0 014.337 3.506 72.18 72.18 0 012.136 1.773c.702.597 1.435 1.175 2.136 1.772a73.825 73.825 0 01-2.214-1.682c-.734-.578-1.481-1.105-2.215-1.683-1.468-1.156-2.949-2.26-4.416-3.416L12.012 17.1l-2.201-1.734-2.169-1.753-2.168-1.753-.071-.046.027-.103.359-2.228.359-2.228.41-2.214.18-1.114.18-1.114z" fill="#fff"/><path d="M5.642 11.85l-1.753.896 1.706-1.513.047.616z" fill="#fff"/></svg>